Poster: 
http://imgr.us/images/4a0ld17n448d1lney0zf.jpg

Info:

Format : MPEG-PS
File size : 661 MiB
Duration : 1h 54mn
Overall bit rate mode : Variable
Overall bit rate : 808 Kbps

Video
ID : 224 (0xE0)
Format : MPEG Video
Format version : Version 2
Format profile : Main@Main
Format settings, BVOP : Yes
Format settings, Matrix : Default
Format settings, GOP : M=3, N=13
Duration : 1h 54mn
Bit rate mode : Variable
Bit rate : 664 Kbps
Maximum bit rate : 9 672 Kbps
Width : 352 pixels
Height : 288 pixels
Display aspect ratio : 4:3
Frame rate : 25.000 fps
Standard : PAL
Color space : YUV
Chroma subsampling : 4:2:0
Bit depth : 8 bits
Scan type : Progressive
Compression mode : Lossy
Bits/(Pixel*Frame) : 0.262
Stream size : 543 MiB (82%)

Audio
ID : 192 (0xC0)
Format : MPEG Audio
Format version : Version 1
Format profile : Layer 2
Duration : 1h 54mn
Bit rate mode : Constant
Bit rate : 128 Kbps
Channel(s) : 2 channels
Sampling rate : 48.0 KHz
Compression mode : Lossy
Delay relative to video : -600ms
Stream size : 105 MiB (16%)


Screens: 
http://www.shotpix.com/images/10977050134262120764.png 
http://www.shotpix.com/images/37045364639355007202.png 
http://www.shotpix.com/images/63332738067374391347.png 
http://www.shotpix.com/images/99596451515983396625.png 
http://www.shotpix.com/images/91668313022943058406.png 
http://www.shotpix.com/images/98157285069825741199.png
